<svg xmlns="http://www.w3.org/2000/svg" viewBox="0 0 1024 1024">
  <defs>
    <linearGradient id="bg" x1="128" y1="96" x2="896" y2="928" gradientUnits="userSpaceOnUse">
      <stop stop-color="#22d3ee"/>
      <stop offset="0.55" stop-color="#0e7490"/>
      <stop offset="1" stop-color="#111827"/>
    </linearGradient>
    <linearGradient id="paper" x1="312" y1="220" x2="712" y2="804" gradientUnits="userSpaceOnUse">
      <stop stop-color="#ffffff"/>
      <stop offset="1" stop-color="#dff7ff"/>
    </linearGradient>
    <filter id="shadow" x="-20%" y="-20%" width="140%" height="140%">
      <feDropShadow dx="0" dy="28" stdDeviation="32" flood-color="#083344" flood-opacity="0.35"/>
    </filter>
  </defs>
  <rect width="1024" height="1024" rx="224" fill="url(#bg)"/>
  <circle cx="782" cy="228" r="86" fill="#67e8f9" opacity="0.22"/>
  <circle cx="214" cy="802" r="132" fill="#0f172a" opacity="0.22"/>
  <g filter="url(#shadow)">
    <path d="M314 176h312l126 126v504c0 42-34 76-76 76H314c-42 0-76-34-76-76V252c0-42 34-76 76-76Z" fill="url(#paper)"/>
    <path d="M626 176v104c0 26 22 48 48 48h78L626 176Z" fill="#bae6fd"/>
    <path d="M344 426h328" stroke="#0e7490" stroke-width="48" stroke-linecap="round"/>
    <path d="M344 550h328" stroke="#155e75" stroke-width="48" stroke-linecap="round" opacity="0.9"/>
    <path d="M344 674h184" stroke="#164e63" stroke-width="48" stroke-linecap="round" opacity="0.8"/>
  </g>
  <g transform="translate(596 594)">
    <circle cx="112" cy="112" r="132" fill="#0f172a"/>
    <path d="m46 116 44 44 92-104" fill="none" stroke="#67e8f9" stroke-width="36" stroke-linecap="round" stroke-linejoin="round"/>
  </g>
</svg>
